$MeshFormat
2.2 0 8
$EndMeshFormat
$Nodes
381
1 0.000000 0.000000 0.0
2 0.000685 0.004611 0.0
3 0.002739 0.009114 0.0
4 0.006156 0.013503 0.0
5 0.010926 0.017770 0.0
6 0.017037 0.021904 0.0
7 0.024472 0.025893 0.0
8 0.033210 0.029726 0.0
9 0.043227 0.033389 0.0
10 0.054497 0.036867 0.0
11 0.066987 0.040145 0.0
12 0.080665 0.043211 0.0
13 0.095492 0.046049 0.0
14 0.111427 0.048648 0.0
15 0.128428 0.050996 0.0
16 0.146447 0.053083 0.0
17 0.165435 0.054902 0.0
18 0.185340 0.056447 0.0
19 0.206107 0.057714 0.0
20 0.227680 0.058702 0.0
21 0.250000 0.059412 0.0
22 0.273005 0.059848 0.0
23 0.296632 0.060015 0.0
24 0.320816 0.059921 0.0
25 0.345492 0.059575 0.0
26 0.370590 0.058989 0.0
27 0.396044 0.058175 0.0
28 0.421783 0.057148 0.0
29 0.447736 0.055923 0.0
30 0.473832 0.054515 0.0
31 0.500000 0.052940 0.0
32 0.526168 0.051216 0.0
33 0.552264 0.049358 0.0
34 0.578217 0.047383 0.0
35 0.603956 0.045307 0.0
36 0.629410 0.043147 0.0
37 0.654508 0.040917 0.0
38 0.679184 0.038634 0.0
39 0.703368 0.036311 0.0
40 0.726995 0.033962 0.0
41 0.750000 0.031603 0.0
42 0.772320 0.029246 0.0
43 0.793893 0.026905 0.0
44 0.814660 0.024593 0.0
45 0.834565 0.022323 0.0
46 0.853553 0.020107 0.0
47 0.871572 0.017959 0.0
48 0.888573 0.015891 0.0
49 0.904508 0.013914 0.0
50 0.919335 0.012042 0.0
51 0.933013 0.010286 0.0
52 0.945503 0.008658 0.0
53 0.956773 0.007168 0.0
54 0.966790 0.005826 0.0
55 0.975528 0.004642 0.0
56 0.982963 0.003626 0.0
57 0.989074 0.002783 0.0
58 0.993844 0.002120 0.0
59 0.997261 0.001644 0.0
60 0.999315 0.001356 0.0
61 1.000000 0.001260 0.0
62 0.999315 -0.001356 0.0
63 0.997261 -0.001644 0.0
64 0.993844 -0.002120 0.0
65 0.989074 -0.002783 0.0
66 0.982963 -0.003626 0.0
67 0.975528 -0.004642 0.0
68 0.966790 -0.005826 0.0
69 0.956773 -0.007168 0.0
70 0.945503 -0.008658 0.0
71 0.933013 -0.010286 0.0
72 0.919335 -0.012042 0.0
73 0.904508 -0.013914 0.0
74 0.888573 -0.015891 0.0
75 0.871572 -0.017959 0.0
76 0.853553 -0.020107 0.0
77 0.834565 -0.022323 0.0
78 0.814660 -0.024593 0.0
79 0.793893 -0.026905 0.0
80 0.772320 -0.029246 0.0
81 0.750000 -0.031603 0.0
82 0.726995 -0.033962 0.0
83 0.703368 -0.036311 0.0
84 0.679184 -0.038634 0.0
85 0.654508 -0.040917 0.0
86 0.629410 -0.043147 0.0
87 0.603956 -0.045307 0.0
88 0.578217 -0.047383 0.0
89 0.552264 -0.049358 0.0
90 0.526168 -0.051216 0.0
91 0.500000 -0.052940 0.0
92 0.473832 -0.054515 0.0
93 0.447736 -0.055923 0.0
94 0.421783 -0.057148 0.0
95 0.396044 -0.058175 0.0
96 0.370590 -0.058989 0.0
97 0.345492 -0.059575 0.0
98 0.320816 -0.059921 0.0
99 0.296632 -0.060015 0.0
100 0.273005 -0.059848 0.0
101 0.250000 -0.059412 0.0
102 0.227680 -0.058702 0.0
103 0.206107 -0.057714 0.0
104 0.185340 -0.056447 0.0
105 0.165435 -0.054902 0.0
106 0.146447 -0.053083 0.0
107 0.128428 -0.050996 0.0
108 0.111427 -0.048648 0.0
109 0.095492 -0.046049 0.0
110 0.080665 -0.043211 0.0
111 0.066987 -0.040145 0.0
112 0.054497 -0.036867 0.0
113 0.043227 -0.033389 0.0
114 0.033210 -0.029726 0.0
115 0.024472 -0.025893 0.0
116 0.017037 -0.021904 0.0
117 0.010926 -0.017770 0.0
118 0.006156 -0.013503 0.0
119 0.002739 -0.009114 0.0
120 0.000685 -0.004611 0.0
121 -2.000000 -2.000000 0.0
122 -1.833333 -2.000000 0.0
123 -1.666667 -2.000000 0.0
124 -1.500000 -2.000000 0.0
125 -1.333333 -2.000000 0.0
126 -1.166667 -2.000000 0.0
127 -1.000000 -2.000000 0.0
128 -0.833333 -2.000000 0.0
129 -0.666667 -2.000000 0.0
130 -0.500000 -2.000000 0.0
131 -0.333333 -2.000000 0.0
132 -0.166667 -2.000000 0.0
133 0.000000 -2.000000 0.0
134 0.166667 -2.000000 0.0
135 0.333333 -2.000000 0.0
136 0.500000 -2.000000 0.0
137 0.666667 -2.000000 0.0
138 0.833333 -2.000000 0.0
139 1.000000 -2.000000 0.0
140 1.166667 -2.000000 0.0
141 1.333333 -2.000000 0.0
142 1.500000 -2.000000 0.0
143 1.666667 -2.000000 0.0
144 1.833333 -2.000000 0.0
145 2.000000 -2.000000 0.0
146 2.166667 -2.000000 0.0
147 2.333333 -2.000000 0.0
148 2.500000 -2.000000 0.0
149 2.666667 -2.000000 0.0
150 2.833333 -2.000000 0.0
151 3.000000 -2.000000 0.0
152 3.000000 -1.866667 0.0
153 3.000000 -1.733333 0.0
154 3.000000 -1.600000 0.0
155 3.000000 -1.466667 0.0
156 3.000000 -1.333333 0.0
157 3.000000 -1.200000 0.0
158 3.000000 -1.066667 0.0
159 3.000000 -0.933333 0.0
160 3.000000 -0.800000 0.0
161 3.000000 -0.666667 0.0
162 3.000000 -0.533333 0.0
163 3.000000 -0.400000 0.0
164 3.000000 -0.266667 0.0
165 3.000000 -0.133333 0.0
166 3.000000 0.000000 0.0
167 3.000000 0.133333 0.0
168 3.000000 0.266667 0.0
169 3.000000 0.400000 0.0
170 3.000000 0.533333 0.0
171 3.000000 0.666667 0.0
172 3.000000 0.800000 0.0
173 3.000000 0.933333 0.0
174 3.000000 1.066667 0.0
175 3.000000 1.200000 0.0
176 3.000000 1.333333 0.0
177 3.000000 1.466667 0.0
178 3.000000 1.600000 0.0
179 3.000000 1.733333 0.0
180 3.000000 1.866667 0.0
181 3.000000 2.000000 0.0
182 2.833333 2.000000 0.0
183 2.666667 2.000000 0.0
184 2.500000 2.000000 0.0
185 2.333333 2.000000 0.0
186 2.166667 2.000000 0.0
187 2.000000 2.000000 0.0
188 1.833333 2.000000 0.0
189 1.666667 2.000000 0.0
190 1.500000 2.000000 0.0
191 1.333333 2.000000 0.0
192 1.166667 2.000000 0.0
193 1.000000 2.000000 0.0
194 0.833333 2.000000 0.0
195 0.666667 2.000000 0.0
196 0.500000 2.000000 0.0
197 0.333333 2.000000 0.0
198 0.166667 2.000000 0.0
199 0.000000 2.000000 0.0
200 -0.166667 2.000000 0.0
201 -0.333333 2.000000 0.0
202 -0.500000 2.000000 0.0
203 -0.666667 2.000000 0.0
204 -0.833333 2.000000 0.0
205 -1.000000 2.000000 0.0
206 -1.166667 2.000000 0.0
207 -1.333333 2.000000 0.0
208 -1.500000 2.000000 0.0
209 -1.666667 2.000000 0.0
210 -1.833333 2.000000 0.0
211 -2.000000 2.000000 0.0
212 -2.000000 1.866667 0.0
213 -2.000000 1.733333 0.0
214 -2.000000 1.600000 0.0
215 -2.000000 1.466667 0.0
216 -2.000000 1.333333 0.0
217 -2.000000 1.200000 0.0
218 -2.000000 1.066667 0.0
219 -2.000000 0.933333 0.0
220 -2.000000 0.800000 0.0
221 -2.000000 0.666667 0.0
222 -2.000000 0.533333 0.0
223 -2.000000 0.400000 0.0
224 -2.000000 0.266667 0.0
225 -2.000000 0.133333 0.0
226 -2.000000 0.000000 0.0
227 -2.000000 -0.133333 0.0
228 -2.000000 -0.266667 0.0
229 -2.000000 -0.400000 0.0
230 -2.000000 -0.533333 0.0
231 -2.000000 -0.666667 0.0
232 -2.000000 -0.800000 0.0
233 -2.000000 -0.933333 0.0
234 -2.000000 -1.066667 0.0
235 -2.000000 -1.200000 0.0
236 -2.000000 -1.333333 0.0
237 -2.000000 -1.466667 0.0
238 -2.000000 -1.600000 0.0
239 -2.000000 -1.733333 0.0
240 -2.000000 -1.866667 0.0
241 0.999766 0.002079 0.0
242 1.000805 0.001934 0.0
243 1.000450 0.003177 0.0
244 1.001161 0.000690 0.0
245 1.002028 0.002956 0.0
246 1.001488 0.004844 0.0
247 1.003884 0.004508 0.0
248 0.998611 -0.003811 0.0
249 1.003064 0.007375 0.0
250 1.006705 0.006865 0.0
251 1.005459 0.011224 0.0
252 1.010996 0.010449 0.0
253 0.999925 0.011999 0.0
254 -0.003654 0.002899 0.0
255 -0.002196 -0.008645 0.0
256 0.000633 0.014279 0.0
257 1.012893 0.003816 0.0
258 0.004826 -0.019790 0.0
259 1.019432 0.009274 0.0
260 0.010376 0.025167 0.0
261 0.980385 0.012464 0.0
262 0.980385 -0.012464 0.0
263 0.017266 -0.030398 0.0
264 1.022330 -0.000844 0.0
265 0.025481 0.035468 0.0
266 1.032328 0.007493 0.0
267 0.035000 -0.040362 0.0
268 0.952797 0.020457 0.0
269 0.952797 -0.020457 0.0
270 -0.012935 -0.004137 0.0
271 0.045796 0.045064 0.0
272 0.057841 -0.049556 0.0
273 1.036775 -0.008002 0.0
274 1.027897 0.022989 0.0
275 0.071104 0.053824 0.0
276 -0.003984 0.028212 0.0
277 0.913987 0.029332 0.0
278 0.913987 -0.029332 0.0
279 0.085547 -0.057850 0.0
280 0.101132 0.061620 0.0
281 0.001784 -0.035956 0.0
282 0.117815 -0.065118 0.0
283 0.135550 0.068332 0.0
284 0.864905 0.038677 0.0
285 0.864905 -0.038677 0.0
286 0.154287 -0.071251 0.0
287 0.173976 0.073865 0.0
288 0.194559 -0.076166 0.0
289 0.806762 0.048076 0.0
290 0.806762 -0.048076 0.0
291 0.215981 0.078150 0.0
292 0.238180 -0.079813 0.0
293 0.027195 0.058142 0.0
294 0.261095 0.081156 0.0
295 0.740994 0.057124 0.0
296 0.740994 -0.057124 0.0
297 0.284661 -0.082180 0.0
298 0.308813 0.082888 0.0
299 0.038303 -0.065124 0.0
300 0.333484 -0.083287 0.0
301 0.669220 0.065428 0.0
302 0.669220 -0.065428 0.0
303 0.358604 0.083385 0.0
304 0.384104 -0.083190 0.0
305 0.409913 0.082713 0.0
306 0.593204 0.072600 0.0
307 0.593204 -0.072600 0.0
308 0.435960 -0.081968 0.0
309 0.462173 0.080965 0.0
310 0.488480 -0.079720 0.0
311 0.514808 0.078246 0.0
312 0.975521 -0.047282 0.0
313 0.079156 0.084536 0.0
314 1.067487 0.017563 0.0
315 0.095162 -0.090425 0.0
316 -0.036598 0.019824 0.0
317 0.149727 0.106077 0.0
318 0.943230 0.067920 0.0
319 1.081260 -0.030212 0.0
320 1.053867 0.065341 0.0
321 0.169925 -0.110566 0.0
322 0.235738 0.121671 0.0
323 0.259203 -0.124556 0.0
324 -0.005629 -0.082683 0.0
325 0.333234 0.130705 0.0
326 0.358887 -0.131921 0.0
327 0.437758 0.133122 0.0
328 0.464440 -0.132730 0.0
329 0.029708 0.117540 0.0
330 0.846017 -0.106373 0.0
331 0.783537 0.122811 0.0
332 0.638607 -0.147387 0.0
333 0.114231 -0.168473 0.0
334 0.178321 0.193364 0.0
335 1.176821 0.048885 0.0
336 0.302026 -0.223233 0.0
337 0.383148 0.233498 0.0
338 -0.110896 -0.058554 0.0
339 -0.079732 -0.164286 0.0
340 -0.190908 -0.139596 0.0
341 -0.158008 -0.254099 0.0
342 -0.224887 -0.026029 0.0
343 1.134370 0.199269 0.0
344 1.220743 -0.101454 0.0
345 2.780607 -1.533333 0.0
346 2.780607 -1.000000 0.0
347 2.780607 -0.333333 0.0
348 2.780607 0.200000 0.0
349 2.780607 0.733333 0.0
350 2.780607 1.266667 0.0
351 -1.797230 1.533333 0.0
352 -1.804897 1.133333 0.0
353 -1.810737 0.733333 0.0
354 -1.814292 0.333333 0.0
355 -1.815209 -0.066667 0.0
356 -1.813387 -0.466667 0.0
357 -1.809023 -0.866667 0.0
358 -1.802522 -1.266667 0.0
359 2.250000 -1.725759 0.0
360 -1.250000 1.753537 0.0
361 -1.416667 -1.749535 0.0
362 -0.750000 -1.763171 0.0
363 -0.250000 -1.768386 0.0
364 0.416667 -1.767200 0.0
365 0.916667 -1.760397 0.0
366 1.583333 -1.745206 0.0
367 2.416667 1.725759 0.0
368 1.750000 1.740588 0.0
369 1.250000 1.753537 0.0
370 0.583333 1.765451 0.0
371 0.083333 1.768985 0.0
372 -0.416667 1.767200 0.0
373 0.034665 0.291376 0.0
374 0.785856 -0.347083 0.0
375 -0.403018 -0.202105 0.0
376 -0.330425 -0.463301 0.0
377 -0.481719 0.055658 0.0
378 1.530073 0.150157 0.0
379 0.264074 0.594602 0.0
380 1.391898 0.655536 0.0
381 1.683235 -0.354090 0.0
$EndNodes
$Elements
762
1 1 2 12 12 1 2
2 1 2 12 12 2 3
3 1 2 12 12 3 4
4 1 2 12 12 4 5
5 1 2 12 12 5 6
6 1 2 12 12 6 7
7 1 2 12 12 7 8
8 1 2 12 12 8 9
9 1 2 12 12 9 10
10 1 2 12 12 10 11
11 1 2 12 12 11 12
12 1 2 12 12 12 13
13 1 2 12 12 13 14
14 1 2 12 12 14 15
15 1 2 12 12 15 16
16 1 2 12 12 16 17
17 1 2 12 12 17 18
18 1 2 12 12 18 19
19 1 2 12 12 19 20
20 1 2 12 12 20 21
21 1 2 12 12 21 22
22 1 2 12 12 22 23
23 1 2 12 12 23 24
24 1 2 12 12 24 25
25 1 2 12 12 25 26
26 1 2 12 12 26 27
27 1 2 12 12 27 28
28 1 2 12 12 28 29
29 1 2 12 12 29 30
30 1 2 12 12 30 31
31 1 2 12 12 31 32
32 1 2 12 12 32 33
33 1 2 12 12 33 34
34 1 2 12 12 34 35
35 1 2 12 12 35 36
36 1 2 12 12 36 37
37 1 2 12 12 37 38
38 1 2 12 12 38 39
39 1 2 12 12 39 40
40 1 2 12 12 40 41
41 1 2 12 12 41 42
42 1 2 12 12 42 43
43 1 2 12 12 43 44
44 1 2 12 12 44 45
45 1 2 12 12 45 46
46 1 2 12 12 46 47
47 1 2 12 12 47 48
48 1 2 12 12 48 49
49 1 2 12 12 49 50
50 1 2 12 12 50 51
51 1 2 12 12 51 52
52 1 2 12 12 52 53
53 1 2 12 12 53 54
54 1 2 12 12 54 55
55 1 2 12 12 55 56
56 1 2 12 12 56 57
57 1 2 12 12 57 58
58 1 2 12 12 58 59
59 1 2 12 12 59 60
60 1 2 12 12 60 61
61 1 2 12 12 61 62
62 1 2 12 12 62 63
63 1 2 12 12 63 64
64 1 2 12 12 64 65
65 1 2 12 12 65 66
66 1 2 12 12 66 67
67 1 2 12 12 67 68
68 1 2 12 12 68 69
69 1 2 12 12 69 70
70 1 2 12 12 70 71
71 1 2 12 12 71 72
72 1 2 12 12 72 73
73 1 2 12 12 73 74
74 1 2 12 12 74 75
75 1 2 12 12 75 76
76 1 2 12 12 76 77
77 1 2 12 12 77 78
78 1 2 12 12 78 79
79 1 2 12 12 79 80
80 1 2 12 12 80 81
81 1 2 12 12 81 82
82 1 2 12 12 82 83
83 1 2 12 12 83 84
84 1 2 12 12 84 85
85 1 2 12 12 85 86
86 1 2 12 12 86 87
87 1 2 12 12 87 88
88 1 2 12 12 88 89
89 1 2 12 12 89 90
90 1 2 12 12 90 91
91 1 2 12 12 91 92
92 1 2 12 12 92 93
93 1 2 12 12 93 94
94 1 2 12 12 94 95
95 1 2 12 12 95 96
96 1 2 12 12 96 97
97 1 2 12 12 97 98
98 1 2 12 12 98 99
99 1 2 12 12 99 100
100 1 2 12 12 100 101
101 1 2 12 12 101 102
102 1 2 12 12 102 103
103 1 2 12 12 103 104
104 1 2 12 12 104 105
105 1 2 12 12 105 106
106 1 2 12 12 106 107
107 1 2 12 12 107 108
108 1 2 12 12 108 109
109 1 2 12 12 109 110
110 1 2 12 12 110 111
111 1 2 12 12 111 112
112 1 2 12 12 112 113
113 1 2 12 12 113 114
114 1 2 12 12 114 115
115 1 2 12 12 115 116
116 1 2 12 12 116 117
117 1 2 12 12 117 118
118 1 2 12 12 118 119
119 1 2 12 12 119 120
120 1 2 12 12 120 1
121 1 2 10 10 121 122
122 1 2 10 10 122 123
123 1 2 10 10 123 124
124 1 2 10 10 124 125
125 1 2 10 10 125 126
126 1 2 10 10 126 127
127 1 2 10 10 127 128
128 1 2 10 10 128 129
129 1 2 10 10 129 130
130 1 2 10 10 130 131
131 1 2 10 10 131 132
132 1 2 10 10 132 133
133 1 2 10 10 133 134
134 1 2 10 10 134 135
135 1 2 10 10 135 136
136 1 2 10 10 136 137
137 1 2 10 10 137 138
138 1 2 10 10 138 139
139 1 2 10 10 139 140
140 1 2 10 10 140 141
141 1 2 10 10 141 142
142 1 2 10 10 142 143
143 1 2 10 10 143 144
144 1 2 10 10 144 145
145 1 2 10 10 145 146
146 1 2 10 10 146 147
147 1 2 10 10 147 148
148 1 2 10 10 148 149
149 1 2 10 10 149 150
150 1 2 10 10 150 151
151 1 2 11 11 151 152
152 1 2 11 11 152 153
153 1 2 11 11 153 154
154 1 2 11 11 154 155
155 1 2 11 11 155 156
156 1 2 11 11 156 157
157 1 2 11 11 157 158
158 1 2 11 11 158 159
159 1 2 11 11 159 160
160 1 2 11 11 160 161
161 1 2 11 11 161 162
162 1 2 11 11 162 163
163 1 2 11 11 163 164
164 1 2 11 11 164 165
165 1 2 11 11 165 166
166 1 2 11 11 166 167
167 1 2 11 11 167 168
168 1 2 11 11 168 169
169 1 2 11 11 169 170
170 1 2 11 11 170 171
171 1 2 11 11 171 172
172 1 2 11 11 172 173
173 1 2 11 11 173 174
174 1 2 11 11 174 175
175 1 2 11 11 175 176
176 1 2 11 11 176 177
177 1 2 11 11 177 178
178 1 2 11 11 178 179
179 1 2 11 11 179 180
180 1 2 11 11 180 181
181 1 2 11 11 181 182
182 1 2 10 10 182 183
183 1 2 10 10 183 184
184 1 2 10 10 184 185
185 1 2 10 10 185 186
186 1 2 10 10 186 187
187 1 2 10 10 187 188
188 1 2 10 10 188 189
189 1 2 10 10 189 190
190 1 2 10 10 190 191
191 1 2 10 10 191 192
192 1 2 10 10 192 193
193 1 2 10 10 193 194
194 1 2 10 10 194 195
195 1 2 10 10 195 196
196 1 2 10 10 196 197
197 1 2 10 10 197 198
198 1 2 10 10 198 199
199 1 2 10 10 199 200
200 1 2 10 10 200 201
201 1 2 10 10 201 202
202 1 2 10 10 202 203
203 1 2 10 10 203 204
204 1 2 10 10 204 205
205 1 2 10 10 205 206
206 1 2 10 10 206 207
207 1 2 10 10 207 208
208 1 2 10 10 208 209
209 1 2 10 10 209 210
210 1 2 10 10 210 211
211 1 2 10 10 211 212
212 1 2 10 10 212 213
213 1 2 10 10 213 214
214 1 2 10 10 214 215
215 1 2 10 10 215 216
216 1 2 10 10 216 217
217 1 2 10 10 217 218
218 1 2 10 10 218 219
219 1 2 10 10 219 220
220 1 2 10 10 220 221
221 1 2 10 10 221 222
222 1 2 10 10 222 223
223 1 2 10 10 223 224
224 1 2 10 10 224 225
225 1 2 10 10 225 226
226 1 2 10 10 226 227
227 1 2 10 10 227 228
228 1 2 10 10 228 229
229 1 2 10 10 229 230
230 1 2 10 10 230 231
231 1 2 10 10 231 232
232 1 2 10 10 232 233
233 1 2 10 10 233 234
234 1 2 10 10 234 235
235 1 2 10 10 235 236
236 1 2 10 10 236 237
237 1 2 10 10 237 238
238 1 2 10 10 238 239
239 1 2 10 10 239 240
240 1 2 10 10 240 121
241 2 2 20 20 60 61 241
242 2 2 20 20 60 241 59
243 2 2 20 20 241 61 242
244 2 2 20 20 241 242 243
245 2 2 20 20 242 61 244
246 2 2 20 20 243 242 245
247 2 2 20 20 241 243 59
248 2 2 20 20 244 61 62
249 2 2 20 20 242 244 245
250 2 2 20 20 243 245 246
251 2 2 20 20 246 245 247
252 2 2 20 20 243 246 59
253 2 2 20 20 62 63 248
254 2 2 20 20 246 247 249
255 2 2 20 20 247 245 244
256 2 2 20 20 62 248 244
257 2 2 20 20 248 63 64
258 2 2 20 20 246 249 59
259 2 2 20 20 249 247 250
260 2 2 20 20 58 59 249
261 2 2 20 20 250 247 244
262 2 2 20 20 249 250 251
263 2 2 20 20 251 250 252
264 2 2 20 20 249 251 253
265 2 2 20 20 1 2 254
266 2 2 20 20 120 1 254
267 2 2 20 20 254 2 3
268 2 2 20 20 57 58 253
269 2 2 20 20 64 65 248
270 2 2 20 20 119 120 255
271 2 2 20 20 119 255 118
272 2 2 20 20 255 120 254
273 2 2 20 20 244 248 250
274 2 2 20 20 3 4 256
275 2 2 20 20 3 256 254
276 2 2 20 20 256 4 5
277 2 2 20 20 253 251 252
278 2 2 20 20 249 253 58
279 2 2 20 20 252 250 257
280 2 2 20 20 56 57 253
281 2 2 20 20 65 66 248
282 2 2 20 20 117 118 258
283 2 2 20 20 258 118 255
284 2 2 20 20 117 258 116
285 2 2 20 20 257 250 248
286 2 2 20 20 252 257 259
287 2 2 20 20 5 6 260
288 2 2 20 20 5 260 256
289 2 2 20 20 260 6 7
290 2 2 20 20 55 56 261
291 2 2 20 20 66 67 262
292 2 2 20 20 115 116 263
293 2 2 20 20 115 263 114
294 2 2 20 20 263 116 258
295 2 2 20 20 259 257 264
296 2 2 20 20 252 259 253
297 2 2 20 20 54 55 261
298 2 2 20 20 67 68 262
299 2 2 20 20 261 56 253
300 2 2 20 20 66 262 248
301 2 2 20 20 7 8 265
302 2 2 20 20 7 265 260
303 2 2 20 20 265 8 9
304 2 2 20 20 53 54 261
305 2 2 20 20 68 69 262
306 2 2 20 20 259 264 266
307 2 2 20 20 264 257 248
308 2 2 20 20 113 114 267
309 2 2 20 20 113 267 112
310 2 2 20 20 267 114 263
311 2 2 20 20 52 53 268
312 2 2 20 20 69 70 269
313 2 2 20 20 255 254 270
314 2 2 20 20 270 254 256
315 2 2 20 20 255 270 258
316 2 2 20 20 9 10 271
317 2 2 20 20 9 271 265
318 2 2 20 20 271 10 11
319 2 2 20 20 51 52 268
320 2 2 20 20 70 71 269
321 2 2 20 20 111 112 272
322 2 2 20 20 266 264 273
323 2 2 20 20 259 266 274
324 2 2 20 20 111 272 110
325 2 2 20 20 272 112 267
326 2 2 20 20 50 51 268
327 2 2 20 20 71 72 269
328 2 2 20 20 268 53 261
329 2 2 20 20 69 269 262
330 2 2 20 20 11 12 275
331 2 2 20 20 11 275 271
332 2 2 20 20 275 12 13
333 2 2 20 20 256 260 276
334 2 2 20 20 276 260 265
335 2 2 20 20 256 276 270
336 2 2 20 20 49 50 277
337 2 2 20 20 72 73 278
338 2 2 20 20 109 110 279
339 2 2 20 20 279 110 272
340 2 2 20 20 109 279 108
341 2 2 20 20 48 49 277
342 2 2 20 20 73 74 278
343 2 2 20 20 259 274 253
344 2 2 20 20 274 266 273
345 2 2 20 20 273 264 248
346 2 2 20 20 13 14 280
347 2 2 20 20 263 258 281
348 2 2 20 20 281 258 270
349 2 2 20 20 263 281 267
350 2 2 20 20 13 280 275
351 2 2 20 20 280 14 15
352 2 2 20 20 47 48 277
353 2 2 20 20 74 75 278
354 2 2 20 20 107 108 282
355 2 2 20 20 107 282 106
356 2 2 20 20 282 108 279
357 2 2 20 20 277 50 268
358 2 2 20 20 72 278 269
359 2 2 20 20 15 16 283
360 2 2 20 20 46 47 284
361 2 2 20 20 75 76 285
362 2 2 20 20 283 16 17
363 2 2 20 20 15 283 280
364 2 2 20 20 105 106 286
365 2 2 20 20 45 46 284
366 2 2 20 20 76 77 285
367 2 2 20 20 261 253 274
368 2 2 20 20 105 286 104
369 2 2 20 20 286 106 282
370 2 2 20 20 17 18 287
371 2 2 20 20 44 45 284
372 2 2 20 20 77 78 285
373 2 2 20 20 248 262 273
374 2 2 20 20 17 287 283
375 2 2 20 20 287 18 19
376 2 2 20 20 103 104 288
377 2 2 20 20 43 44 289
378 2 2 20 20 78 79 290
379 2 2 20 20 19 20 291
380 2 2 20 20 102 103 288
381 2 2 20 20 42 43 289
382 2 2 20 20 79 80 290
383 2 2 20 20 284 47 277
384 2 2 20 20 75 285 278
385 2 2 20 20 288 104 286
386 2 2 20 20 20 21 291
387 2 2 20 20 101 102 292
388 2 2 20 20 41 42 289
389 2 2 20 20 80 81 290
390 2 2 20 20 265 271 293
391 2 2 20 20 19 291 287
392 2 2 20 20 293 271 275
393 2 2 20 20 265 293 276
394 2 2 20 20 21 22 294
395 2 2 20 20 100 101 292
396 2 2 20 20 40 41 295
397 2 2 20 20 81 82 296
398 2 2 20 20 292 102 288
399 2 2 20 20 22 23 294
400 2 2 20 20 99 100 297
401 2 2 20 20 39 40 295
402 2 2 20 20 82 83 296
403 2 2 20 20 23 24 298
404 2 2 20 20 98 99 297
405 2 2 20 20 38 39 295
406 2 2 20 20 83 84 296
407 2 2 20 20 21 294 291
408 2 2 20 20 272 267 299
409 2 2 20 20 24 25 298
410 2 2 20 20 97 98 300
411 2 2 20 20 289 44 284
412 2 2 20 20 78 290 285
413 2 2 20 20 37 38 301
414 2 2 20 20 84 85 302
415 2 2 20 20 272 299 279
416 2 2 20 20 299 267 281
417 2 2 20 20 25 26 303
418 2 2 20 20 96 97 300
419 2 2 20 20 297 100 292
420 2 2 20 20 36 37 301
421 2 2 20 20 85 86 302
422 2 2 20 20 26 27 303
423 2 2 20 20 95 96 304
424 2 2 20 20 35 36 301
425 2 2 20 20 86 87 302
426 2 2 20 20 27 28 305
427 2 2 20 20 94 95 304
428 2 2 20 20 34 35 306
429 2 2 20 20 87 88 307
430 2 2 20 20 23 298 294
431 2 2 20 20 28 29 305
432 2 2 20 20 93 94 308
433 2 2 20 20 33 34 306
434 2 2 20 20 88 89 307
435 2 2 20 20 29 30 309
436 2 2 20 20 92 93 308
437 2 2 20 20 32 33 306
438 2 2 20 20 89 90 307
439 2 2 20 20 30 31 309
440 2 2 20 20 91 92 310
441 2 2 20 20 31 32 311
442 2 2 20 20 90 91 310
443 2 2 20 20 300 98 297
444 2 2 20 20 295 41 289
445 2 2 20 20 81 296 290
446 2 2 20 20 25 303 298
447 2 2 20 20 304 96 300
448 2 2 20 20 27 305 303
449 2 2 20 20 308 94 304
450 2 2 20 20 301 38 295
451 2 2 20 20 84 302 296
452 2 2 20 20 268 261 274
453 2 2 20 20 262 269 312
454 2 2 20 20 29 309 305
455 2 2 20 20 310 92 308
456 2 2 20 20 311 32 306
457 2 2 20 20 31 311 309
458 2 2 20 20 306 35 301
459 2 2 20 20 87 307 302
460 2 2 20 20 275 280 313
461 2 2 20 20 275 313 293
462 2 2 20 20 313 280 283
463 2 2 20 20 274 273 314
464 2 2 20 20 282 279 315
465 2 2 20 20 270 276 316
466 2 2 20 20 316 276 293
467 2 2 20 20 270 316 281
468 2 2 20 20 282 315 286
469 2 2 20 20 315 279 299
470 2 2 20 20 262 312 273
471 2 2 20 20 312 269 278
472 2 2 20 20 283 287 317
473 2 2 20 20 277 268 318
474 2 2 20 20 314 273 319
475 2 2 20 20 274 314 320
476 2 2 20 20 283 317 313
477 2 2 20 20 317 287 291
478 2 2 20 20 288 286 321
479 2 2 20 20 288 321 292
480 2 2 20 20 321 286 315
481 2 2 20 20 291 294 322
482 2 2 20 20 297 292 323
483 2 2 20 20 299 281 324
484 2 2 20 20 90 310 307
485 2 2 20 20 299 324 315
486 2 2 20 20 324 281 316
487 2 2 20 20 294 298 322
488 2 2 20 20 291 322 317
489 2 2 20 20 277 318 284
490 2 2 20 20 318 268 274
491 2 2 20 20 300 297 323
492 2 2 20 20 323 292 321
493 2 2 20 20 274 320 318
494 2 2 20 20 320 314 319
495 2 2 20 20 319 273 312
496 2 2 20 20 298 303 325
497 2 2 20 20 278 285 312
498 2 2 20 20 304 300 326
499 2 2 20 20 303 305 325
500 2 2 20 20 308 304 326
501 2 2 20 20 305 309 327
502 2 2 20 20 310 308 328
503 2 2 20 20 309 311 327
504 2 2 20 20 298 325 322
505 2 2 20 20 326 300 323
506 2 2 20 20 305 327 325
507 2 2 20 20 310 328 307
508 2 2 20 20 328 308 326
509 2 2 20 20 293 313 329
510 2 2 20 20 289 284 318
511 2 2 20 20 285 290 330
512 2 2 20 20 329 313 317
513 2 2 20 20 293 329 316
514 2 2 20 20 295 289 331
515 2 2 20 20 290 296 330
516 2 2 20 20 285 330 312
517 2 2 20 20 301 295 331
518 2 2 20 20 296 302 330
519 2 2 20 20 306 301 331
520 2 2 20 20 302 307 332
521 2 2 20 20 321 315 333
522 2 2 20 20 331 289 318
523 2 2 20 20 311 306 327
524 2 2 20 20 333 315 324
525 2 2 20 20 321 333 323
526 2 2 20 20 317 322 334
527 2 2 20 20 302 332 330
528 2 2 20 20 332 307 328
529 2 2 20 20 317 334 329
530 2 2 20 20 334 322 325
531 2 2 20 20 320 319 335
532 2 2 20 20 326 323 336
533 2 2 20 20 325 327 337
534 2 2 20 20 328 326 336
535 2 2 20 20 324 316 338
536 2 2 20 20 319 312 330
537 2 2 20 20 336 323 333
538 2 2 20 20 338 316 329
539 2 2 20 20 324 338 339
540 2 2 20 20 324 339 333
541 2 2 20 20 339 338 340
542 2 2 20 20 318 320 331
543 2 2 20 20 339 340 341
544 2 2 20 20 340 338 342
545 2 2 20 20 337 327 306
546 2 2 20 20 325 337 334
547 2 2 20 20 340 342 341
548 2 2 20 20 342 338 329
549 2 2 20 20 339 341 333
550 2 2 20 20 320 335 343
551 2 2 20 20 335 319 344
552 2 2 20 20 151 152 150
553 2 2 20 20 152 153 150
554 2 2 20 20 153 154 150
555 2 2 20 20 154 155 345
556 2 2 20 20 155 156 345
557 2 2 20 20 157 158 345
558 2 2 20 20 158 159 346
559 2 2 20 20 159 160 346
560 2 2 20 20 160 161 346
561 2 2 20 20 161 162 346
562 2 2 20 20 163 164 347
563 2 2 20 20 164 165 347
564 2 2 20 20 165 166 347
565 2 2 20 20 166 167 347
566 2 2 20 20 167 168 348
567 2 2 20 20 168 169 348
568 2 2 20 20 169 170 348
569 2 2 20 20 170 171 348
570 2 2 20 20 171 172 349
571 2 2 20 20 172 173 349
572 2 2 20 20 174 175 349
573 2 2 20 20 175 176 350
574 2 2 20 20 176 177 350
575 2 2 20 20 177 178 350
576 2 2 20 20 178 179 182
577 2 2 20 20 179 180 182
578 2 2 20 20 180 181 182
579 2 2 20 20 211 212 210
580 2 2 20 20 212 213 210
581 2 2 20 20 213 214 210
582 2 2 20 20 214 215 351
583 2 2 20 20 215 216 351
584 2 2 20 20 217 218 352
585 2 2 20 20 218 219 352
586 2 2 20 20 219 220 352
587 2 2 20 20 220 221 353
588 2 2 20 20 221 222 353
589 2 2 20 20 223 224 354
590 2 2 20 20 224 225 354
591 2 2 20 20 225 226 354
592 2 2 20 20 226 227 355
593 2 2 20 20 227 228 355
594 2 2 20 20 228 229 355
595 2 2 20 20 229 230 356
596 2 2 20 20 230 231 356
597 2 2 20 20 231 232 356
598 2 2 20 20 232 233 357
599 2 2 20 20 234 235 357
600 2 2 20 20 235 236 358
601 2 2 20 20 236 237 358
602 2 2 20 20 237 238 358
603 2 2 20 20 238 239 122
604 2 2 20 20 239 240 122
605 2 2 20 20 240 121 122
606 2 2 20 20 156 157 345
607 2 2 20 20 162 163 347
608 2 2 20 20 216 217 352
609 2 2 20 20 222 223 354
610 2 2 20 20 173 174 349
611 2 2 20 20 233 234 357
612 2 2 20 20 343 335 344
613 2 2 20 20 320 343 331
614 2 2 20 20 344 319 330
615 2 2 20 20 146 147 359
616 2 2 20 20 149 150 345
617 2 2 20 20 206 207 360
618 2 2 20 20 209 210 351
619 2 2 20 20 122 123 238
620 2 2 20 20 124 125 361
621 2 2 20 20 126 127 361
622 2 2 20 20 128 129 362
623 2 2 20 20 131 132 363
624 2 2 20 20 133 134 363
625 2 2 20 20 135 136 364
626 2 2 20 20 136 137 364
627 2 2 20 20 138 139 365
628 2 2 20 20 139 140 365
629 2 2 20 20 141 142 365
630 2 2 20 20 142 143 366
631 2 2 20 20 144 145 366
632 2 2 20 20 183 184 178
633 2 2 20 20 184 185 367
634 2 2 20 20 186 187 367
635 2 2 20 20 188 189 368
636 2 2 20 20 191 192 369
637 2 2 20 20 193 194 369
638 2 2 20 20 195 196 370
639 2 2 20 20 196 197 370
640 2 2 20 20 198 199 371
641 2 2 20 20 199 200 371
642 2 2 20 20 201 202 372
643 2 2 20 20 202 203 372
644 2 2 20 20 204 205 360
645 2 2 20 20 123 124 361
646 2 2 20 20 127 128 362
647 2 2 20 20 129 130 362
648 2 2 20 20 130 131 363
649 2 2 20 20 132 133 363
650 2 2 20 20 187 188 368
651 2 2 20 20 189 190 368
652 2 2 20 20 190 191 369
653 2 2 20 20 192 193 369
654 2 2 20 20 125 126 361
655 2 2 20 20 134 135 364
656 2 2 20 20 137 138 365
657 2 2 20 20 140 141 365
658 2 2 20 20 143 144 366
659 2 2 20 20 145 146 359
660 2 2 20 20 147 148 359
661 2 2 20 20 148 149 345
662 2 2 20 20 182 183 178
663 2 2 20 20 185 186 367
664 2 2 20 20 194 195 370
665 2 2 20 20 197 198 371
666 2 2 20 20 200 201 372
667 2 2 20 20 203 204 372
668 2 2 20 20 205 206 360
669 2 2 20 20 207 208 360
670 2 2 20 20 208 209 351
671 2 2 20 20 329 334 373
672 2 2 20 20 329 373 342
673 2 2 20 20 373 334 337
674 2 2 20 20 332 328 336
675 2 2 20 20 336 333 341
676 2 2 20 20 226 355 354
677 2 2 20 20 306 331 337
678 2 2 20 20 229 356 355
679 2 2 20 20 220 353 352
680 2 2 20 20 232 357 356
681 2 2 20 20 235 358 357
682 2 2 20 20 330 332 374
683 2 2 20 20 214 351 210
684 2 2 20 20 154 345 150
685 2 2 20 20 158 346 345
686 2 2 20 20 167 348 347
687 2 2 20 20 171 349 348
688 2 2 20 20 175 350 349
689 2 2 20 20 341 342 375
690 2 2 20 20 330 374 344
691 2 2 20 20 374 332 336
692 2 2 20 20 341 375 376
693 2 2 20 20 375 342 377
694 2 2 20 20 142 366 365
695 2 2 20 20 375 377 376
696 2 2 20 20 377 342 373
697 2 2 20 20 341 376 336
698 2 2 20 20 222 354 353
699 2 2 20 20 216 352 351
700 2 2 20 20 184 367 178
701 2 2 20 20 162 347 346
702 2 2 20 20 343 344 378
703 2 2 20 20 371 200 372
704 2 2 20 20 197 371 370
705 2 2 20 20 130 363 362
706 2 2 20 20 364 137 365
707 2 2 20 20 134 364 363
708 2 2 20 20 194 370 369
709 2 2 20 20 127 362 361
710 2 2 20 20 360 208 351
711 2 2 20 20 190 369 368
712 2 2 20 20 373 337 379
713 2 2 20 20 123 361 238
714 2 2 20 20 331 343 337
715 2 2 20 20 187 368 367
716 2 2 20 20 145 359 366
717 2 2 20 20 359 148 345
718 2 2 20 20 373 379 377
719 2 2 20 20 379 337 343
720 2 2 20 20 358 238 361
721 2 2 20 20 343 378 380
722 2 2 20 20 378 344 381
723 2 2 20 20 350 178 367
724 2 2 20 20 354 355 377
725 2 2 20 20 355 356 357
726 2 2 20 20 353 354 352
727 2 2 20 20 357 358 361
728 2 2 20 20 351 352 360
729 2 2 20 20 372 204 360
730 2 2 20 20 374 336 376
731 2 2 20 20 344 374 381
732 2 2 20 20 371 372 379
733 2 2 20 20 370 371 379
734 2 2 20 20 362 363 376
735 2 2 20 20 364 365 374
736 2 2 20 20 368 369 380
737 2 2 20 20 343 380 379
738 2 2 20 20 380 378 349
739 2 2 20 20 378 381 348
740 2 2 20 20 347 348 381
741 2 2 20 20 348 349 378
742 2 2 20 20 345 346 359
743 2 2 20 20 349 350 380
744 2 2 20 20 376 377 355
745 2 2 20 20 350 367 380
746 2 2 20 20 346 347 381
747 2 2 20 20 363 364 376
748 2 2 20 20 369 370 380
749 2 2 20 20 361 362 357
750 2 2 20 20 367 368 380
751 2 2 20 20 365 366 374
752 2 2 20 20 366 359 381
753 2 2 20 20 355 357 376
754 2 2 20 20 352 354 377
755 2 2 20 20 360 352 377
756 2 2 20 20 372 360 377
757 2 2 20 20 381 374 366
758 2 2 20 20 359 346 381
759 2 2 20 20 377 379 372
760 2 2 20 20 374 376 364
761 2 2 20 20 379 380 370
762 2 2 20 20 362 376 357
$EndElements
